<?xml version="1.0" standalone="no"?>
<!DOCTYPE svg PUBLIC "-//W3C//DTD SVG 20010904//EN"
 "http://www.w3.org/TR/2001/REC-SVG-20010904/DTD/svg10.dtd">
<svg version="1.0" xmlns="http://www.w3.org/2000/svg"
 width="169.000000pt" height="81.000000pt" viewBox="0 0 169.000000 81.000000"
 preserveAspectRatio="xMidYMid meet">

<g transform="translate(0.000000,81.000000) scale(0.100000,-0.100000)"
fill="#000000" stroke="none">
<path d="M363 782 c-63 -23 -117 -62 -152 -113 l-26 -38 -72 -1 c-84 0 -103
-6 -103 -30 0 -24 19 -30 90 -30 l59 0 -10 -32 c-19 -68 -11 -151 21 -216 49
-97 135 -158 256 -182 152 -30 294 57 353 215 25 65 27 151 6 210 -8 22 -15
40 -15 41 0 0 18 7 41 14 36 12 44 12 67 -3 15 -9 26 -22 24 -29 -25 -97 -18
-197 19 -270 31 -61 102 -124 167 -149 73 -28 177 -31 249 -6 69 24 145 93
177 162 30 62 32 83 11 91 -21 8 -19 37 4 63 15 17 17 29 11 56 l-8 35 58 0
c71 0 90 7 90 30 0 24 -19 30 -102 30 l-69 0 -49 53 c-134 146 -345 152 -482
13 -45 -46 -48 -47 -70 -32 -29 20 -107 21 -135 1 -20 -14 -24 -12 -72 34 -88
86 -231 121 -338 83z"/>
</g>
</svg>
